<?xml version="1.0" encoding="UTF-8"?>
<svg xmlns="http://www.w3.org/2000/svg" xmlns:xlink="http://www.w3.org/1999/xlink" width="595.2756pt" height="841.8898pt" viewBox="0 0 595.2756 841.8898">
<defs>
<g>
<g id="glyph-0-0">
<path d="M 2.96875 -6.296875 L 3.9375 -6.296875 L 2.15625 -3.953125 C 2.257812 -4.015625 2.367188 -4.054688 2.484375 -4.078125 C 2.597656 -4.097656 2.726562 -4.109375 2.875 -4.109375 C 3.21875 -4.109375 3.53125 -4.019531 3.8125 -3.84375 C 4.09375 -3.664062 4.316406 -3.421875 4.484375 -3.109375 C 4.648438 -2.804688 4.734375 -2.457031 4.734375 -2.0625 C 4.734375 -1.632812 4.640625 -1.257812 4.453125 -0.9375 C 4.265625 -0.613281 4.007812 -0.359375 3.6875 -0.171875 C 3.363281 0.00390625 3 0.09375 2.59375 0.09375 C 2.1875 0.09375 1.820312 0.00390625 1.5 -0.171875 C 1.175781 -0.359375 0.921875 -0.613281 0.734375 -0.9375 C 0.546875 -1.257812 0.453125 -1.632812 0.453125 -2.0625 C 0.453125 -2.320312 0.488281 -2.5625 0.5625 -2.78125 C 0.632812 -3.007812 0.726562 -3.207031 0.84375 -3.375 Z M 1.171875 -2.0625 C 1.171875 -1.78125 1.234375 -1.53125 1.359375 -1.3125 C 1.484375 -1.09375 1.648438 -0.921875 1.859375 -0.796875 C 2.078125 -0.671875 2.320312 -0.609375 2.59375 -0.609375 C 2.863281 -0.609375 3.101562 -0.671875 3.3125 -0.796875 C 3.53125 -0.921875 3.695312 -1.09375 3.8125 -1.3125 C 3.9375 -1.53125 4 -1.78125 4 -2.0625 C 4 -2.351562 3.9375 -2.609375 3.8125 -2.828125 C 3.695312 -3.054688 3.53125 -3.234375 3.3125 -3.359375 C 3.101562 -3.492188 2.863281 -3.5625 2.59375 -3.5625 C 2.320312 -3.5625 2.078125 -3.492188 1.859375 -3.359375 C 1.648438 -3.234375 1.484375 -3.054688 1.359375 -2.828125 C 1.234375 -2.609375 1.171875 -2.351562 1.171875 -2.0625 Z M 1.171875 -2.0625 "/>
</g>
<g id="glyph-0-1">
<path d="M 0.859375 -0.359375 C 0.859375 -0.492188 0.90625 -0.609375 1 -0.703125 C 1.101562 -0.804688 1.21875 -0.859375 1.34375 -0.859375 C 1.488281 -0.859375 1.609375 -0.804688 1.703125 -0.703125 C 1.796875 -0.609375 1.84375 -0.492188 1.84375 -0.359375 C 1.84375 -0.222656 1.796875 -0.101562 1.703125 0 C 1.609375 0.09375 1.488281 0.140625 1.34375 0.140625 C 1.21875 0.140625 1.101562 0.09375 1 0 C 0.90625 -0.101562 0.859375 -0.222656 0.859375 -0.359375 Z M 0.859375 -0.359375 "/>
</g>
<g id="glyph-0-2">
</g>
<g id="glyph-0-3">
<path d="M 5.484375 -6.296875 L 6.25 -6.296875 L 6.25 0.3125 L 1.484375 -4.6875 L 1.484375 0 L 0.71875 0 L 0.71875 -6.609375 L 5.484375 -1.609375 Z M 5.484375 -6.296875 "/>
</g>
<g id="glyph-0-4">
<path d="M 2.28125 0.09375 C 1.894531 0.09375 1.550781 0.00390625 1.25 -0.171875 C 0.957031 -0.359375 0.726562 -0.613281 0.5625 -0.9375 C 0.394531 -1.269531 0.3125 -1.644531 0.3125 -2.0625 C 0.3125 -2.5 0.394531 -2.878906 0.5625 -3.203125 C 0.738281 -3.523438 0.976562 -3.773438 1.28125 -3.953125 C 1.59375 -4.140625 1.953125 -4.234375 2.359375 -4.234375 C 2.972656 -4.234375 3.453125 -4.039062 3.796875 -3.65625 C 4.140625 -3.28125 4.3125 -2.765625 4.3125 -2.109375 C 4.3125 -2.066406 4.3125 -2.019531 4.3125 -1.96875 C 4.3125 -1.925781 4.3125 -1.898438 4.3125 -1.890625 L 1.046875 -1.890625 C 1.078125 -1.472656 1.207031 -1.148438 1.4375 -0.921875 C 1.664062 -0.691406 1.972656 -0.578125 2.359375 -0.578125 C 2.929688 -0.578125 3.363281 -0.828125 3.65625 -1.328125 L 4.25 -0.96875 C 3.8125 -0.257812 3.15625 0.09375 2.28125 0.09375 Z M 2.359375 -3.59375 C 2.015625 -3.59375 1.726562 -3.5 1.5 -3.3125 C 1.28125 -3.125 1.140625 -2.851562 1.078125 -2.5 L 3.53125 -2.5 C 3.507812 -2.832031 3.390625 -3.097656 3.171875 -3.296875 C 2.960938 -3.492188 2.691406 -3.59375 2.359375 -3.59375 Z M 2.359375 -3.59375 "/>
</g>
<g id="glyph-0-5">
<path d="M 0.046875 -4.140625 L 0.71875 -4.140625 L 0.71875 -5.578125 L 1.4375 -5.578125 L 1.4375 -4.140625 L 2.109375 -4.140625 L 2.109375 -3.46875 L 1.4375 -3.46875 L 1.4375 0 L 0.71875 0 L 0.71875 -3.46875 L 0.046875 -3.46875 Z M 0.046875 -4.140625 "/>
</g>
<g id="glyph-0-6">
<path d="M 2.703125 -3.46875 L 0.40625 -3.46875 L 0.40625 -4.140625 L 4 -4.140625 L 1.4375 -0.671875 L 3.828125 -0.671875 L 3.828125 0 L 0.140625 0 Z M 2.703125 -3.46875 "/>
</g>
<g id="glyph-0-7">
<path d="M 0.84375 -1.265625 C 0.96875 -1.078125 1.117188 -0.910156 1.296875 -0.765625 C 1.484375 -0.628906 1.707031 -0.5625 1.96875 -0.5625 C 2.175781 -0.5625 2.335938 -0.609375 2.453125 -0.703125 C 2.566406 -0.796875 2.625 -0.925781 2.625 -1.09375 C 2.625 -1.238281 2.578125 -1.359375 2.484375 -1.453125 C 2.390625 -1.554688 2.269531 -1.640625 2.125 -1.703125 C 1.988281 -1.773438 1.835938 -1.84375 1.671875 -1.90625 C 1.492188 -1.96875 1.3125 -2.046875 1.125 -2.140625 C 0.945312 -2.242188 0.796875 -2.375 0.671875 -2.53125 C 0.546875 -2.695312 0.484375 -2.898438 0.484375 -3.140625 C 0.484375 -3.390625 0.546875 -3.59375 0.671875 -3.75 C 0.804688 -3.914062 0.976562 -4.035156 1.1875 -4.109375 C 1.394531 -4.191406 1.609375 -4.234375 1.828125 -4.234375 C 2.160156 -4.234375 2.457031 -4.15625 2.71875 -4 C 2.988281 -3.84375 3.191406 -3.648438 3.328125 -3.421875 L 2.75 -3.046875 C 2.632812 -3.203125 2.488281 -3.332031 2.3125 -3.4375 C 2.144531 -3.539062 1.953125 -3.59375 1.734375 -3.59375 C 1.585938 -3.59375 1.457031 -3.554688 1.34375 -3.484375 C 1.238281 -3.421875 1.1875 -3.320312 1.1875 -3.1875 C 1.1875 -3.019531 1.273438 -2.882812 1.453125 -2.78125 C 1.628906 -2.675781 1.828125 -2.578125 2.046875 -2.484375 C 2.285156 -2.390625 2.503906 -2.285156 2.703125 -2.171875 C 2.898438 -2.054688 3.054688 -1.921875 3.171875 -1.765625 C 3.296875 -1.609375 3.359375 -1.410156 3.359375 -1.171875 C 3.359375 -0.804688 3.226562 -0.503906 2.96875 -0.265625 C 2.707031 -0.0234375 2.363281 0.09375 1.9375 0.09375 C 1.65625 0.09375 1.40625 0.046875 1.1875 -0.046875 C 0.96875 -0.148438 0.78125 -0.28125 0.625 -0.4375 C 0.46875 -0.59375 0.351562 -0.753906 0.28125 -0.921875 Z M 0.84375 -1.265625 "/>
</g>
<g id="glyph-0-8">
<path d="M 3.953125 -4.140625 L 1.265625 1.984375 L 0.453125 1.984375 L 1.578125 -0.578125 L 0 -4.140625 L 0.859375 -4.140625 L 2.015625 -1.28125 L 3.15625 -4.140625 Z M 3.953125 -4.140625 "/>
</g>
<g id="glyph-0-9">
<path d="M 3.328125 -2.515625 C 3.328125 -3.210938 3.035156 -3.5625 2.453125 -3.5625 C 2.140625 -3.5625 1.882812 -3.460938 1.6875 -3.265625 C 1.488281 -3.078125 1.390625 -2.828125 1.390625 -2.515625 L 1.390625 0 L 0.671875 0 L 0.671875 -4.140625 L 1.390625 -4.140625 L 1.390625 -3.484375 C 1.660156 -3.984375 2.070312 -4.234375 2.625 -4.234375 C 3.0625 -4.234375 3.40625 -4.085938 3.65625 -3.796875 C 3.914062 -3.503906 4.046875 -3.109375 4.046875 -2.609375 L 4.046875 0 L 3.328125 0 Z M 3.328125 -2.515625 "/>
</g>
<g id="glyph-0-10">
<path d="M 3.328125 -2.515625 C 3.328125 -3.210938 3.035156 -3.5625 2.453125 -3.5625 C 2.140625 -3.5625 1.882812 -3.460938 1.6875 -3.265625 C 1.488281 -3.066406 1.390625 -2.816406 1.390625 -2.515625 L 1.390625 0 L 0.671875 0 L 0.671875 -7.015625 L 1.390625 -7.015625 L 1.390625 -3.484375 C 1.515625 -3.710938 1.679688 -3.894531 1.890625 -4.03125 C 2.109375 -4.164062 2.351562 -4.234375 2.625 -4.234375 C 3.050781 -4.234375 3.394531 -4.09375 3.65625 -3.8125 C 3.914062 -3.539062 4.046875 -3.140625 4.046875 -2.609375 L 4.046875 0 L 3.328125 0 Z M 3.328125 -2.515625 "/>
</g>
<g id="glyph-1-0">
<path d="M 5.125 -10.734375 L 8.421875 -10.734375 L 5.21875 -7.15625 C 5.363281 -7.195312 5.515625 -7.226562 5.671875 -7.25 C 5.835938 -7.269531 6.015625 -7.28125 6.203125 -7.28125 C 6.742188 -7.28125 7.269531 -7.140625 7.78125 -6.859375 C 8.289062 -6.578125 8.707031 -6.175781 9.03125 -5.65625 C 9.363281 -5.132812 9.53125 -4.515625 9.53125 -3.796875 C 9.53125 -2.910156 9.332031 -2.164062 8.9375 -1.5625 C 8.539062 -0.957031 8.007812 -0.503906 7.34375 -0.203125 C 6.6875 0.0976562 5.957031 0.25 5.15625 0.25 C 4.34375 0.25 3.601562 0.0976562 2.9375 -0.203125 C 2.28125 -0.503906 1.753906 -0.957031 1.359375 -1.5625 C 0.960938 -2.164062 0.765625 -2.910156 0.765625 -3.796875 C 0.765625 -4.367188 0.882812 -4.898438 1.125 -5.390625 C 1.375 -5.878906 1.671875 -6.34375 2.015625 -6.78125 Z M 3.34375 -3.796875 C 3.34375 -3.234375 3.515625 -2.785156 3.859375 -2.453125 C 4.203125 -2.128906 4.632812 -1.96875 5.15625 -1.96875 C 5.675781 -1.96875 6.109375 -2.128906 6.453125 -2.453125 C 6.796875 -2.785156 6.96875 -3.234375 6.96875 -3.796875 C 6.96875 -4.335938 6.796875 -4.773438 6.453125 -5.109375 C 6.109375 -5.453125 5.675781 -5.625 5.15625 -5.625 C 4.632812 -5.625 4.203125 -5.453125 3.859375 -5.109375 C 3.515625 -4.773438 3.34375 -4.335938 3.34375 -3.796875 Z M 3.34375 -3.796875 "/>
</g>
<g id="glyph-1-1">
<path d="M 1.03125 -1.046875 C 1.03125 -1.441406 1.164062 -1.773438 1.4375 -2.046875 C 1.707031 -2.328125 2.054688 -2.46875 2.484375 -2.46875 C 2.898438 -2.46875 3.242188 -2.328125 3.515625 -2.046875 C 3.785156 -1.773438 3.921875 -1.441406 3.921875 -1.046875 C 3.921875 -0.660156 3.785156 -0.328125 3.515625 -0.046875 C 3.242188 0.234375 2.898438 0.375 2.484375 0.375 C 2.054688 0.375 1.707031 0.234375 1.4375 -0.046875 C 1.164062 -0.328125 1.03125 -0.660156 1.03125 -1.046875 Z M 1.03125 -1.046875 "/>
</g>
<g id="glyph-1-2">
<path d="M 8.578125 -10.78125 L 11.09375 -10.78125 L 11.09375 0.546875 L 3.640625 -6.0625 L 3.640625 0 L 1.140625 0 L 1.140625 -11.328125 L 8.578125 -4.71875 Z M 8.578125 -10.78125 "/>
</g>
<g id="glyph-1-3">
<path d="M 1.140625 -10.78125 L 8.296875 -10.78125 L 8.296875 -8.640625 L 3.640625 -8.640625 L 3.640625 -6.71875 L 8 -6.71875 L 8 -4.625 L 3.640625 -4.625 L 3.640625 -2.140625 L 8.296875 -2.140625 L 8.296875 0 L 1.140625 0 Z M 1.140625 -10.78125 "/>
</g>
<g id="glyph-1-4">
<path d="M 0.0625 -8.453125 L 0.0625 -10.78125 L 8.59375 -10.78125 L 8.59375 -8.453125 L 5.625 -8.453125 L 5.625 0 L 3.015625 0 L 3.015625 -8.453125 Z M 0.0625 -8.453125 "/>
</g>
<g id="glyph-1-5">
<path d="M 0.875 -8.453125 L 0.875 -10.78125 L 9.34375 -10.78125 L 4.234375 -2.234375 L 8.78125 -2.234375 L 8.78125 0 L 0.140625 0 L 5.15625 -8.453125 Z M 0.875 -8.453125 "/>
</g>
<g id="glyph-1-6">
<path d="M 2.328125 -3.796875 C 2.648438 -3.191406 3.03125 -2.71875 3.46875 -2.375 C 3.914062 -2.039062 4.414062 -1.875 4.96875 -1.875 C 5.351562 -1.875 5.664062 -1.96875 5.90625 -2.15625 C 6.15625 -2.351562 6.28125 -2.613281 6.28125 -2.9375 C 6.28125 -3.207031 6.207031 -3.425781 6.0625 -3.59375 C 5.925781 -3.769531 5.695312 -3.9375 5.375 -4.09375 C 5.0625 -4.25 4.640625 -4.425781 4.109375 -4.625 C 3.859375 -4.71875 3.566406 -4.847656 3.234375 -5.015625 C 2.910156 -5.179688 2.59375 -5.394531 2.28125 -5.65625 C 1.976562 -5.914062 1.726562 -6.234375 1.53125 -6.609375 C 1.34375 -6.984375 1.25 -7.4375 1.25 -7.96875 C 1.25 -8.601562 1.414062 -9.148438 1.75 -9.609375 C 2.082031 -10.066406 2.53125 -10.414062 3.09375 -10.65625 C 3.664062 -10.90625 4.300781 -11.03125 5 -11.03125 C 5.71875 -11.03125 6.34375 -10.910156 6.875 -10.671875 C 7.40625 -10.441406 7.84375 -10.144531 8.1875 -9.78125 C 8.539062 -9.425781 8.8125 -9.0625 9 -8.6875 L 7.015625 -7.578125 C 6.773438 -7.960938 6.488281 -8.269531 6.15625 -8.5 C 5.832031 -8.738281 5.457031 -8.859375 5.03125 -8.859375 C 4.664062 -8.859375 4.382812 -8.773438 4.1875 -8.609375 C 3.988281 -8.453125 3.890625 -8.257812 3.890625 -8.03125 C 3.890625 -7.644531 4.097656 -7.335938 4.515625 -7.109375 C 4.941406 -6.878906 5.53125 -6.632812 6.28125 -6.375 C 6.789062 -6.1875 7.25 -5.945312 7.65625 -5.65625 C 8.070312 -5.375 8.40625 -5.019531 8.65625 -4.59375 C 8.90625 -4.164062 9.03125 -3.65625 9.03125 -3.0625 C 9.03125 -2.332031 8.835938 -1.710938 8.453125 -1.203125 C 8.078125 -0.703125 7.582031 -0.316406 6.96875 -0.046875 C 6.363281 0.210938 5.722656 0.34375 5.046875 0.34375 C 4.335938 0.34375 3.6875 0.21875 3.09375 -0.03125 C 2.5 -0.289062 1.976562 -0.628906 1.53125 -1.046875 C 1.082031 -1.472656 0.742188 -1.953125 0.515625 -2.484375 Z M 2.328125 -3.796875 "/>
</g>
<g id="glyph-1-7">
<path d="M 7.1875 -10.78125 L 10.1875 -10.78125 L 6.40625 -4.390625 L 6.40625 0 L 3.765625 0 L 3.765625 -4.375 L -0.015625 -10.78125 L 2.96875 -10.78125 L 5.078125 -6.734375 Z M 7.1875 -10.78125 "/>
</g>
<g id="glyph-1-8">
<path d="M 1.140625 -10.78125 L 3.75 -10.78125 L 3.75 -6.859375 L 8.375 -6.859375 L 8.375 -10.78125 L 10.984375 -10.78125 L 10.984375 0 L 8.375 0 L 8.375 -4.515625 L 3.75 -4.515625 L 3.75 0 L 1.140625 0 Z M 1.140625 -10.78125 "/>
</g>
<g id="glyph-2-0">
<path d="M 0.75 -5.484375 L 0.75 -7.09375 L 4.4375 -7.84375 L 4.4375 0 L 2.65625 0 L 2.65625 -5.953125 Z M 0.75 -5.484375 "/>
</g>
<g id="glyph-2-1">
<path d="M 6.65625 -2.46875 C 6.65625 -2.007812 6.5625 -1.613281 6.375 -1.28125 C 6.195312 -0.957031 5.957031 -0.691406 5.65625 -0.484375 C 5.351562 -0.273438 5.019531 -0.117188 4.65625 -0.015625 C 4.289062 0.0859375 3.921875 0.140625 3.546875 0.140625 C 2.835938 0.140625 2.234375 0.0390625 1.734375 -0.15625 C 1.242188 -0.351562 0.820312 -0.585938 0.46875 -0.859375 L 1.1875 -2.390625 C 1.5 -2.117188 1.828125 -1.910156 2.171875 -1.765625 C 2.523438 -1.617188 2.847656 -1.546875 3.140625 -1.546875 C 3.609375 -1.546875 3.972656 -1.632812 4.234375 -1.8125 C 4.492188 -2 4.625 -2.28125 4.625 -2.65625 C 4.625 -2.90625 4.550781 -3.109375 4.40625 -3.265625 C 4.257812 -3.429688 4.070312 -3.550781 3.84375 -3.625 C 3.625 -3.695312 3.390625 -3.734375 3.140625 -3.734375 C 2.835938 -3.734375 2.492188 -3.703125 2.109375 -3.640625 C 1.734375 -3.578125 1.351562 -3.445312 0.96875 -3.25 L 2.046875 -7.703125 L 6.484375 -7.703125 L 6.484375 -6.09375 L 3.40625 -6.09375 L 2.96875 -4.71875 C 3.175781 -4.8125 3.390625 -4.878906 3.609375 -4.921875 C 3.835938 -4.960938 4.070312 -4.984375 4.3125 -4.984375 C 4.71875 -4.984375 5.097656 -4.882812 5.453125 -4.6875 C 5.816406 -4.488281 6.109375 -4.195312 6.328125 -3.8125 C 6.546875 -3.4375 6.65625 -2.988281 6.65625 -2.46875 Z M 6.65625 -2.46875 "/>
</g>
</g>
</defs>
<g fill="rgb(0%, 0%, 0%)" fill-opacity="1">
<use xlink:href="#glyph-0-0" x="364.65384" y="69.4489"/>
<use xlink:href="#glyph-0-1" x="369.83784" y="69.4489"/>
<use xlink:href="#glyph-0-2" x="372.53784" y="69.4489"/>
<use xlink:href="#glyph-0-3" x="375.23784" y="69.4489"/>
<use xlink:href="#glyph-0-4" x="382.21284" y="69.4489"/>
<use xlink:href="#glyph-0-5" x="386.84784" y="69.4489"/>
<use xlink:href="#glyph-0-6" x="389.00784" y="69.4489"/>
<use xlink:href="#glyph-0-7" x="393.14784" y="69.4489"/>
</g>
<g fill="rgb(0%, 0%, 0%)" fill-opacity="1">
<use xlink:href="#glyph-0-8" x="396.72984" y="69.4489"/>
<use xlink:href="#glyph-0-9" x="400.68984" y="69.4489"/>
<use xlink:href="#glyph-0-5" x="405.41484" y="69.4489"/>
<use xlink:href="#glyph-0-10" x="407.57484" y="69.4489"/>
<use xlink:href="#glyph-0-4" x="412.29984" y="69.4489"/>
<use xlink:href="#glyph-0-7" x="416.93484" y="69.4489"/>
<use xlink:href="#glyph-0-4" x="420.56184" y="69.4489"/>
</g>
<path fill="none" stroke-width="3.543307" stroke-linecap="butt" stroke-linejoin="miter" stroke="rgb(96.862793%, 30.979919%, 33.332825%)" stroke-opacity="1" stroke-miterlimit="4" d="M 0 0.00031875 L 425.195312 0.00031875 " transform="matrix(1, 0, 0, 1, 0, 78.4489)"/>
<g fill="rgb(0%, 0%, 0%)" fill-opacity="1">
<use xlink:href="#glyph-1-0" x="70.86614" y="109.99264"/>
<use xlink:href="#glyph-1-1" x="81.16874" y="109.99264"/>
</g>
<g fill="rgb(0%, 0%, 0%)" fill-opacity="1">
<use xlink:href="#glyph-1-2" x="90.74754" y="109.99264"/>
<use xlink:href="#glyph-1-3" x="102.97514" y="109.99264"/>
<use xlink:href="#glyph-1-4" x="112.26134" y="109.99264"/>
</g>
<g fill="rgb(0%, 0%, 0%)" fill-opacity="1">
<use xlink:href="#glyph-1-5" x="121.36274" y="109.99264"/>
<use xlink:href="#glyph-1-6" x="130.91074" y="109.99264"/>
<use xlink:href="#glyph-1-7" x="140.53574" y="109.99264"/>
<use xlink:href="#glyph-1-2" x="150.69974" y="109.99264"/>
<use xlink:href="#glyph-1-4" x="162.92734" y="109.99264"/>
<use xlink:href="#glyph-1-8" x="171.56674" y="109.99264"/>
<use xlink:href="#glyph-1-3" x="183.67114" y="109.99264"/>
<use xlink:href="#glyph-1-6" x="192.95734" y="109.99264"/>
<use xlink:href="#glyph-1-3" x="202.58234" y="109.99264"/>
</g>
<g fill="rgb(0%, 0%, 0%)" fill-opacity="1">
<use xlink:href="#glyph-2-0" x="439.3701" y="780.14096"/>
<use xlink:href="#glyph-2-1" x="444.9691" y="780.14096"/>
</g>
</svg>
