<?xml version="1.0" encoding="UTF-8"?>
<svg xmlns="http://www.w3.org/2000/svg" xmlns:xlink="http://www.w3.org/1999/xlink" width="595.2756pt" height="841.8898pt" viewBox="0 0 595.2756 841.8898">
<defs>
<g>
<g id="glyph-0-0">
<path d="M 0.71875 -5.0625 L 0.71875 -5.84375 L 2.875 -6.390625 L 2.875 0 L 2.109375 0 L 2.109375 -5.46875 Z M 0.71875 -5.0625 "/>
</g>
<g id="glyph-0-1">
<path d="M 0.859375 -0.359375 C 0.859375 -0.492188 0.90625 -0.609375 1 -0.703125 C 1.101562 -0.804688 1.21875 -0.859375 1.34375 -0.859375 C 1.488281 -0.859375 1.609375 -0.804688 1.703125 -0.703125 C 1.796875 -0.609375 1.84375 -0.492188 1.84375 -0.359375 C 1.84375 -0.222656 1.796875 -0.101562 1.703125 0 C 1.609375 0.09375 1.488281 0.140625 1.34375 0.140625 C 1.21875 0.140625 1.101562 0.09375 1 0 C 0.90625 -0.101562 0.859375 -0.222656 0.859375 -0.359375 Z M 0.859375 -0.359375 "/>
</g>
<g id="glyph-0-2">
<path d="M 0.1875 0 L 3.15625 -3.171875 C 3.363281 -3.398438 3.523438 -3.625 3.640625 -3.84375 C 3.753906 -4.0625 3.8125 -4.296875 3.8125 -4.546875 C 3.8125 -4.734375 3.765625 -4.910156 3.671875 -5.078125 C 3.578125 -5.253906 3.4375 -5.394531 3.25 -5.5 C 3.070312 -5.613281 2.851562 -5.671875 2.59375 -5.671875 C 2.195312 -5.671875 1.882812 -5.535156 1.65625 -5.265625 C 1.425781 -4.992188 1.3125 -4.617188 1.3125 -4.140625 L 0.546875 -4.140625 C 0.546875 -4.585938 0.625 -4.976562 0.78125 -5.3125 C 0.945312 -5.65625 1.179688 -5.921875 1.484375 -6.109375 C 1.796875 -6.304688 2.164062 -6.40625 2.59375 -6.40625 C 2.945312 -6.40625 3.25 -6.34375 3.5 -6.21875 C 3.75 -6.101562 3.953125 -5.953125 4.109375 -5.765625 C 4.273438 -5.585938 4.394531 -5.394531 4.46875 -5.1875 C 4.550781 -4.976562 4.59375 -4.773438 4.59375 -4.578125 C 4.59375 -4.253906 4.515625 -3.929688 4.359375 -3.609375 C 4.203125 -3.296875 4.003906 -3.015625 3.765625 -2.765625 L 1.75 -0.71875 L 4.625 -0.71875 L 4.625 0 Z M 0.1875 0 "/>
</g>
<g id="glyph-0-3">
</g>
<g id="glyph-0-4">
<path d="M 0.71875 -6.296875 L 4.3125 -6.296875 L 4.3125 -5.578125 L 1.484375 -5.578125 L 1.484375 -3.78125 L 4.140625 -3.78125 L 4.140625 -3.0625 L 1.484375 -3.0625 L 1.484375 -0.71875 L 4.3125 -0.71875 L 4.3125 0 L 0.71875 0 Z M 0.71875 -6.296875 "/>
</g>
<g id="glyph-0-5">
<path d="M 2.640625 -3.34375 C 2.546875 -3.414062 2.457031 -3.46875 2.375 -3.5 C 2.300781 -3.539062 2.207031 -3.5625 2.09375 -3.5625 C 1.820312 -3.5625 1.632812 -3.460938 1.53125 -3.265625 C 1.4375 -3.066406 1.390625 -2.816406 1.390625 -2.515625 L 1.390625 0 L 0.671875 0 L 0.671875 -4.140625 L 1.390625 -4.140625 L 1.390625 -3.65625 C 1.503906 -3.832031 1.640625 -3.972656 1.796875 -4.078125 C 1.953125 -4.179688 2.109375 -4.234375 2.265625 -4.234375 C 2.421875 -4.234375 2.5625 -4.210938 2.6875 -4.171875 C 2.8125 -4.128906 2.929688 -4.050781 3.046875 -3.9375 Z M 2.640625 -3.34375 "/>
</g>
<g id="glyph-0-6">
<path d="M 0.046875 -4.140625 L 0.859375 -4.140625 L 1.890625 -1.453125 L 3.015625 -4.453125 L 4.21875 -1.4375 L 5.265625 -4.140625 L 6.078125 -4.140625 L 4.28125 0.3125 L 3.03125 -2.703125 L 1.84375 0.3125 Z M 0.046875 -4.140625 "/>
</g>
<g id="glyph-0-7">
<path d="M 2.28125 0.09375 C 1.894531 0.09375 1.550781 0.00390625 1.25 -0.171875 C 0.957031 -0.359375 0.726562 -0.613281 0.5625 -0.9375 C 0.394531 -1.269531 0.3125 -1.644531 0.3125 -2.0625 C 0.3125 -2.5 0.394531 -2.878906 0.5625 -3.203125 C 0.738281 -3.523438 0.976562 -3.773438 1.28125 -3.953125 C 1.59375 -4.140625 1.953125 -4.234375 2.359375 -4.234375 C 2.972656 -4.234375 3.453125 -4.039062 3.796875 -3.65625 C 4.140625 -3.28125 4.3125 -2.765625 4.3125 -2.109375 C 4.3125 -2.066406 4.3125 -2.019531 4.3125 -1.96875 C 4.3125 -1.925781 4.3125 -1.898438 4.3125 -1.890625 L 1.046875 -1.890625 C 1.078125 -1.472656 1.207031 -1.148438 1.4375 -0.921875 C 1.664062 -0.691406 1.972656 -0.578125 2.359375 -0.578125 C 2.929688 -0.578125 3.363281 -0.828125 3.65625 -1.328125 L 4.25 -0.96875 C 3.8125 -0.257812 3.15625 0.09375 2.28125 0.09375 Z M 2.359375 -3.59375 C 2.015625 -3.59375 1.726562 -3.5 1.5 -3.3125 C 1.28125 -3.125 1.140625 -2.851562 1.078125 -2.5 L 3.53125 -2.5 C 3.507812 -2.832031 3.390625 -3.097656 3.171875 -3.296875 C 2.960938 -3.492188 2.691406 -3.59375 2.359375 -3.59375 Z M 2.359375 -3.59375 "/>
</g>
<g id="glyph-0-8">
<path d="M 0.671875 -5.84375 C 0.671875 -5.988281 0.71875 -6.109375 0.8125 -6.203125 C 0.914062 -6.296875 1.035156 -6.34375 1.171875 -6.34375 C 1.304688 -6.34375 1.421875 -6.296875 1.515625 -6.203125 C 1.617188 -6.109375 1.671875 -5.988281 1.671875 -5.84375 C 1.671875 -5.71875 1.617188 -5.601562 1.515625 -5.5 C 1.421875 -5.40625 1.304688 -5.359375 1.171875 -5.359375 C 1.035156 -5.359375 0.914062 -5.40625 0.8125 -5.5 C 0.71875 -5.601562 0.671875 -5.71875 0.671875 -5.84375 Z M 0.8125 -4.140625 L 1.53125 -4.140625 L 1.53125 0 L 0.8125 0 Z M 0.8125 -4.140625 "/>
</g>
<g id="glyph-0-9">
<path d="M 0.046875 -4.140625 L 0.71875 -4.140625 L 0.71875 -5.578125 L 1.4375 -5.578125 L 1.4375 -4.140625 L 2.109375 -4.140625 L 2.109375 -3.46875 L 1.4375 -3.46875 L 1.4375 0 L 0.71875 0 L 0.71875 -3.46875 L 0.046875 -3.46875 Z M 0.046875 -4.140625 "/>
</g>
<g id="glyph-0-10">
<path d="M 1.390625 -1.625 C 1.390625 -1.289062 1.460938 -1.03125 1.609375 -0.84375 C 1.765625 -0.664062 1.988281 -0.578125 2.28125 -0.578125 C 2.59375 -0.578125 2.84375 -0.671875 3.03125 -0.859375 C 3.226562 -1.054688 3.328125 -1.3125 3.328125 -1.625 L 3.328125 -4.140625 L 4.046875 -4.140625 L 4.046875 0 L 3.328125 0 L 3.328125 -0.640625 C 3.054688 -0.148438 2.644531 0.09375 2.09375 0.09375 C 1.664062 0.09375 1.320312 -0.0507812 1.0625 -0.34375 C 0.800781 -0.644531 0.671875 -1.039062 0.671875 -1.53125 L 0.671875 -4.140625 L 1.390625 -4.140625 Z M 1.390625 -1.625 "/>
</g>
<g id="glyph-0-11">
<path d="M 3.328125 -2.515625 C 3.328125 -3.210938 3.035156 -3.5625 2.453125 -3.5625 C 2.140625 -3.5625 1.882812 -3.460938 1.6875 -3.265625 C 1.488281 -3.078125 1.390625 -2.828125 1.390625 -2.515625 L 1.390625 0 L 0.671875 0 L 0.671875 -4.140625 L 1.390625 -4.140625 L 1.390625 -3.484375 C 1.660156 -3.984375 2.070312 -4.234375 2.625 -4.234375 C 3.0625 -4.234375 3.40625 -4.085938 3.65625 -3.796875 C 3.914062 -3.503906 4.046875 -3.109375 4.046875 -2.609375 L 4.046875 0 L 3.328125 0 Z M 3.328125 -2.515625 "/>
</g>
<g id="glyph-0-12">
<path d="M 0.390625 0.265625 L 1.125 0.265625 C 1.125 0.460938 1.175781 0.644531 1.28125 0.8125 C 1.394531 0.988281 1.550781 1.128906 1.75 1.234375 C 1.945312 1.335938 2.179688 1.390625 2.453125 1.390625 C 2.660156 1.390625 2.863281 1.335938 3.0625 1.234375 C 3.269531 1.140625 3.441406 0.984375 3.578125 0.765625 C 3.710938 0.546875 3.78125 0.257812 3.78125 -0.09375 L 3.78125 -0.71875 C 3.632812 -0.457031 3.4375 -0.253906 3.1875 -0.109375 C 2.945312 0.0234375 2.671875 0.09375 2.359375 0.09375 C 1.992188 0.09375 1.65625 0.00390625 1.34375 -0.171875 C 1.03125 -0.347656 0.78125 -0.597656 0.59375 -0.921875 C 0.40625 -1.242188 0.3125 -1.625 0.3125 -2.0625 C 0.3125 -2.519531 0.40625 -2.90625 0.59375 -3.21875 C 0.78125 -3.539062 1.03125 -3.789062 1.34375 -3.96875 C 1.65625 -4.144531 1.992188 -4.234375 2.359375 -4.234375 C 2.671875 -4.234375 2.945312 -4.160156 3.1875 -4.015625 C 3.4375 -3.878906 3.632812 -3.679688 3.78125 -3.421875 L 3.78125 -4.140625 L 4.5 -4.140625 L 4.5 -0.09375 C 4.5 0.382812 4.398438 0.78125 4.203125 1.09375 C 4.003906 1.414062 3.75 1.65625 3.4375 1.8125 C 3.125 1.976562 2.796875 2.0625 2.453125 2.0625 C 2.046875 2.0625 1.6875 1.988281 1.375 1.84375 C 1.070312 1.695312 0.832031 1.484375 0.65625 1.203125 C 0.476562 0.929688 0.390625 0.617188 0.390625 0.265625 Z M 1.046875 -2.0625 C 1.046875 -1.75 1.109375 -1.476562 1.234375 -1.25 C 1.367188 -1.03125 1.539062 -0.863281 1.75 -0.75 C 1.96875 -0.632812 2.203125 -0.578125 2.453125 -0.578125 C 2.660156 -0.578125 2.867188 -0.632812 3.078125 -0.75 C 3.285156 -0.863281 3.453125 -1.03125 3.578125 -1.25 C 3.710938 -1.476562 3.78125 -1.75 3.78125 -2.0625 C 3.78125 -2.382812 3.710938 -2.65625 3.578125 -2.875 C 3.453125 -3.101562 3.285156 -3.273438 3.078125 -3.390625 C 2.867188 -3.503906 2.660156 -3.5625 2.453125 -3.5625 C 2.203125 -3.5625 1.96875 -3.503906 1.75 -3.390625 C 1.539062 -3.273438 1.367188 -3.101562 1.234375 -2.875 C 1.109375 -2.65625 1.046875 -2.382812 1.046875 -2.0625 Z M 1.046875 -2.0625 "/>
</g>
<g id="glyph-0-13">
<path d="M 0.3125 -2.0625 C 0.3125 -2.519531 0.40625 -2.90625 0.59375 -3.21875 C 0.78125 -3.539062 1.03125 -3.789062 1.34375 -3.96875 C 1.65625 -4.144531 1.992188 -4.234375 2.359375 -4.234375 C 2.671875 -4.234375 2.945312 -4.160156 3.1875 -4.015625 C 3.4375 -3.878906 3.632812 -3.679688 3.78125 -3.421875 L 3.78125 -7.015625 L 4.5 -7.015625 L 4.5 0 L 3.78125 0 L 3.78125 -0.71875 C 3.632812 -0.457031 3.4375 -0.253906 3.1875 -0.109375 C 2.945312 0.0234375 2.671875 0.09375 2.359375 0.09375 C 1.992188 0.09375 1.65625 0.00390625 1.34375 -0.171875 C 1.03125 -0.347656 0.78125 -0.597656 0.59375 -0.921875 C 0.40625 -1.242188 0.3125 -1.625 0.3125 -2.0625 Z M 1.046875 -2.0625 C 1.046875 -1.75 1.109375 -1.476562 1.234375 -1.25 C 1.367188 -1.03125 1.539062 -0.863281 1.75 -0.75 C 1.96875 -0.632812 2.203125 -0.578125 2.453125 -0.578125 C 2.660156 -0.578125 2.867188 -0.632812 3.078125 -0.75 C 3.285156 -0.863281 3.453125 -1.03125 3.578125 -1.25 C 3.710938 -1.476562 3.78125 -1.75 3.78125 -2.0625 C 3.78125 -2.382812 3.710938 -2.65625 3.578125 -2.875 C 3.453125 -3.101562 3.285156 -3.273438 3.078125 -3.390625 C 2.867188 -3.503906 2.660156 -3.5625 2.453125 -3.5625 C 2.203125 -3.5625 1.96875 -3.503906 1.75 -3.390625 C 1.539062 -3.273438 1.367188 -3.101562 1.234375 -2.875 C 1.109375 -2.65625 1.046875 -2.382812 1.046875 -2.0625 Z M 1.046875 -2.0625 "/>
</g>
<g id="glyph-0-14">
<path d="M 5.046875 0 L 4.234375 -1.890625 L 1.703125 -1.890625 L 0.90625 0 L 0.046875 0 L 2.96875 -6.609375 L 5.890625 0 Z M 2.96875 -4.875 L 2 -2.609375 L 3.9375 -2.609375 Z M 2.96875 -4.875 "/>
</g>
<g id="glyph-0-15">
<path d="M 0.671875 -7.015625 L 1.390625 -7.015625 L 1.390625 0 L 0.671875 0 Z M 0.671875 -7.015625 "/>
</g>
<g id="glyph-0-16">
<path d="M 0.890625 -3.1875 L 0.546875 -3.71875 C 0.703125 -3.832031 0.914062 -3.945312 1.1875 -4.0625 C 1.457031 -4.175781 1.785156 -4.234375 2.171875 -4.234375 C 2.648438 -4.234375 3.035156 -4.125 3.328125 -3.90625 C 3.628906 -3.6875 3.78125 -3.375 3.78125 -2.96875 L 3.78125 0 L 3.0625 0 L 3.0625 -0.5625 C 2.9375 -0.34375 2.738281 -0.175781 2.46875 -0.0625 C 2.207031 0.0390625 1.953125 0.09375 1.703125 0.09375 C 1.453125 0.09375 1.21875 0.0390625 1 -0.0625 C 0.78125 -0.164062 0.601562 -0.316406 0.46875 -0.515625 C 0.332031 -0.710938 0.265625 -0.953125 0.265625 -1.234375 C 0.265625 -1.640625 0.40625 -1.960938 0.6875 -2.203125 C 0.976562 -2.453125 1.378906 -2.578125 1.890625 -2.578125 C 2.160156 -2.578125 2.394531 -2.546875 2.59375 -2.484375 C 2.789062 -2.421875 2.945312 -2.347656 3.0625 -2.265625 L 3.0625 -2.875 C 3.0625 -3.15625 2.96875 -3.34375 2.78125 -3.4375 C 2.601562 -3.539062 2.390625 -3.59375 2.140625 -3.59375 C 1.828125 -3.59375 1.5625 -3.539062 1.34375 -3.4375 C 1.132812 -3.34375 0.984375 -3.257812 0.890625 -3.1875 Z M 1 -1.28125 C 1 -1.039062 1.082031 -0.851562 1.25 -0.71875 C 1.414062 -0.59375 1.628906 -0.53125 1.890625 -0.53125 C 2.222656 -0.53125 2.5 -0.628906 2.71875 -0.828125 C 2.945312 -1.023438 3.0625 -1.289062 3.0625 -1.625 L 3.0625 -1.765625 C 2.894531 -1.859375 2.722656 -1.921875 2.546875 -1.953125 C 2.378906 -1.984375 2.195312 -2 2 -2 C 1.65625 -2 1.398438 -1.9375 1.234375 -1.8125 C 1.078125 -1.6875 1 -1.507812 1 -1.28125 Z M 1 -1.28125 "/>
</g>
<g id="glyph-0-17">
<path d="M 0 -4.140625 L 0.8125 -4.140625 L 1.984375 -1.21875 L 3.15625 -4.140625 L 3.953125 -4.140625 L 1.984375 0.3125 Z M 0 -4.140625 "/>
</g>
</g>
<clipPath id="clip-0">
<path clip-rule="nonzero" d="M 168 76 L 595.277344 76 L 595.277344 81 L 168 81 Z M 168 76 "/>
</clipPath>
</defs>
<g clip-path="url(#clip-0)">
<path fill="none" stroke-width="3.543307" stroke-linecap="butt" stroke-linejoin="miter" stroke="rgb(96.862793%, 30.979919%, 33.332825%)" stroke-opacity="1" stroke-miterlimit="4" d="M -0.000615 0.00031875 L 439.370479 0.00031875 " transform="matrix(1, 0, 0, 1, 170.07874, 78.4489)"/>
</g>
<g fill="rgb(0%, 0%, 0%)" fill-opacity="1">
<use xlink:href="#glyph-0-0" x="170.07874" y="69.4489"/>
<use xlink:href="#glyph-0-1" x="174.12874" y="69.4489"/>
<use xlink:href="#glyph-0-2" x="176.82874" y="69.4489"/>
<use xlink:href="#glyph-0-1" x="181.94974" y="69.4489"/>
<use xlink:href="#glyph-0-3" x="184.64974" y="69.4489"/>
<use xlink:href="#glyph-0-4" x="187.34974" y="69.4489"/>
<use xlink:href="#glyph-0-5" x="192.29974" y="69.4489"/>
</g>
<g fill="rgb(0%, 0%, 0%)" fill-opacity="1">
<use xlink:href="#glyph-0-6" x="195.65674" y="69.4489"/>
</g>
<g fill="rgb(0%, 0%, 0%)" fill-opacity="1">
<use xlink:href="#glyph-0-7" x="201.64174" y="69.4489"/>
<use xlink:href="#glyph-0-8" x="206.27674" y="69.4489"/>
<use xlink:href="#glyph-0-9" x="208.61674" y="69.4489"/>
<use xlink:href="#glyph-0-7" x="210.77674" y="69.4489"/>
<use xlink:href="#glyph-0-5" x="215.41174" y="69.4489"/>
<use xlink:href="#glyph-0-10" x="218.49874" y="69.4489"/>
<use xlink:href="#glyph-0-11" x="223.22374" y="69.4489"/>
<use xlink:href="#glyph-0-12" x="227.94874" y="69.4489"/>
<use xlink:href="#glyph-0-7" x="233.07874" y="69.4489"/>
<use xlink:href="#glyph-0-11" x="237.71374" y="69.4489"/>
<use xlink:href="#glyph-0-3" x="242.43874" y="69.4489"/>
<use xlink:href="#glyph-0-10" x="245.13874" y="69.4489"/>
<use xlink:href="#glyph-0-11" x="249.86374" y="69.4489"/>
<use xlink:href="#glyph-0-13" x="254.58874" y="69.4489"/>
<use xlink:href="#glyph-0-3" x="259.71874" y="69.4489"/>
<use xlink:href="#glyph-0-14" x="262.41874" y="69.4489"/>
<use xlink:href="#glyph-0-15" x="268.35874" y="69.4489"/>
<use xlink:href="#glyph-0-9" x="270.42874" y="69.4489"/>
<use xlink:href="#glyph-0-7" x="272.58874" y="69.4489"/>
<use xlink:href="#glyph-0-5" x="277.22374" y="69.4489"/>
<use xlink:href="#glyph-0-11" x="280.31074" y="69.4489"/>
<use xlink:href="#glyph-0-16" x="285.03574" y="69.4489"/>
<use xlink:href="#glyph-0-9" x="289.36474" y="69.4489"/>
<use xlink:href="#glyph-0-8" x="291.52474" y="69.4489"/>
<use xlink:href="#glyph-0-17" x="293.86474" y="69.4489"/>
</g>
<g fill="rgb(0%, 0%, 0%)" fill-opacity="1">
<use xlink:href="#glyph-0-7" x="297.68974" y="69.4489"/>
<use xlink:href="#glyph-0-11" x="302.32474" y="69.4489"/>
</g>
</svg>
