<?xml version="1.0" encoding="UTF-8"?>
<svg xmlns="http://www.w3.org/2000/svg" xmlns:xlink="http://www.w3.org/1999/xlink" width="595.2756pt" height="841.8898pt" viewBox="0 0 595.2756 841.8898">
<defs>
<g>
<g id="glyph-0-0">
<path d="M 2.546875 0.09375 C 2.140625 0.09375 1.785156 0.015625 1.484375 -0.140625 C 1.179688 -0.296875 0.945312 -0.503906 0.78125 -0.765625 C 0.625 -1.035156 0.546875 -1.335938 0.546875 -1.671875 L 1.3125 -1.671875 C 1.3125 -1.367188 1.425781 -1.117188 1.65625 -0.921875 C 1.882812 -0.722656 2.179688 -0.625 2.546875 -0.625 C 2.910156 -0.625 3.195312 -0.722656 3.40625 -0.921875 C 3.613281 -1.128906 3.71875 -1.40625 3.71875 -1.75 C 3.71875 -2.144531 3.578125 -2.4375 3.296875 -2.625 C 3.023438 -2.820312 2.6875 -2.921875 2.28125 -2.921875 L 2.28125 -3.59375 C 2.6875 -3.59375 3 -3.703125 3.21875 -3.921875 C 3.4375 -4.140625 3.546875 -4.394531 3.546875 -4.6875 C 3.546875 -4.988281 3.460938 -5.234375 3.296875 -5.421875 C 3.140625 -5.609375 2.90625 -5.703125 2.59375 -5.703125 C 2.300781 -5.703125 2.050781 -5.609375 1.84375 -5.421875 C 1.632812 -5.234375 1.53125 -5.003906 1.53125 -4.734375 L 0.8125 -4.734375 C 0.8125 -5.066406 0.882812 -5.351562 1.03125 -5.59375 C 1.1875 -5.84375 1.394531 -6.035156 1.65625 -6.171875 C 1.925781 -6.316406 2.234375 -6.390625 2.578125 -6.390625 C 2.941406 -6.390625 3.253906 -6.3125 3.515625 -6.15625 C 3.773438 -6 3.972656 -5.796875 4.109375 -5.546875 C 4.253906 -5.296875 4.328125 -5.019531 4.328125 -4.71875 C 4.328125 -4.40625 4.226562 -4.117188 4.03125 -3.859375 C 3.84375 -3.609375 3.585938 -3.414062 3.265625 -3.28125 C 3.628906 -3.175781 3.925781 -2.988281 4.15625 -2.71875 C 4.394531 -2.457031 4.515625 -2.109375 4.515625 -1.671875 C 4.515625 -1.316406 4.425781 -1.003906 4.25 -0.734375 C 4.082031 -0.472656 3.847656 -0.269531 3.546875 -0.125 C 3.253906 0.0195312 2.921875 0.09375 2.546875 0.09375 Z M 2.546875 0.09375 "/>
</g>
<g id="glyph-0-1">
<path d="M 0.859375 -0.359375 C 0.859375 -0.492188 0.90625 -0.609375 1 -0.703125 C 1.101562 -0.804688 1.21875 -0.859375 1.34375 -0.859375 C 1.488281 -0.859375 1.609375 -0.804688 1.703125 -0.703125 C 1.796875 -0.609375 1.84375 -0.492188 1.84375 -0.359375 C 1.84375 -0.222656 1.796875 -0.101562 1.703125 0 C 1.609375 0.09375 1.488281 0.140625 1.34375 0.140625 C 1.21875 0.140625 1.101562 0.09375 1 0 C 0.90625 -0.101562 0.859375 -0.222656 0.859375 -0.359375 Z M 0.859375 -0.359375 "/>
</g>
<g id="glyph-0-2">
<path d="M 2.96875 -6.296875 L 3.9375 -6.296875 L 2.15625 -3.953125 C 2.257812 -4.015625 2.367188 -4.054688 2.484375 -4.078125 C 2.597656 -4.097656 2.726562 -4.109375 2.875 -4.109375 C 3.21875 -4.109375 3.53125 -4.019531 3.8125 -3.84375 C 4.09375 -3.664062 4.316406 -3.421875 4.484375 -3.109375 C 4.648438 -2.804688 4.734375 -2.457031 4.734375 -2.0625 C 4.734375 -1.632812 4.640625 -1.257812 4.453125 -0.9375 C 4.265625 -0.613281 4.007812 -0.359375 3.6875 -0.171875 C 3.363281 0.00390625 3 0.09375 2.59375 0.09375 C 2.1875 0.09375 1.820312 0.00390625 1.5 -0.171875 C 1.175781 -0.359375 0.921875 -0.613281 0.734375 -0.9375 C 0.546875 -1.257812 0.453125 -1.632812 0.453125 -2.0625 C 0.453125 -2.320312 0.488281 -2.5625 0.5625 -2.78125 C 0.632812 -3.007812 0.726562 -3.207031 0.84375 -3.375 Z M 1.171875 -2.0625 C 1.171875 -1.78125 1.234375 -1.53125 1.359375 -1.3125 C 1.484375 -1.09375 1.648438 -0.921875 1.859375 -0.796875 C 2.078125 -0.671875 2.320312 -0.609375 2.59375 -0.609375 C 2.863281 -0.609375 3.101562 -0.671875 3.3125 -0.796875 C 3.53125 -0.921875 3.695312 -1.09375 3.8125 -1.3125 C 3.9375 -1.53125 4 -1.78125 4 -2.0625 C 4 -2.351562 3.9375 -2.609375 3.8125 -2.828125 C 3.695312 -3.054688 3.53125 -3.234375 3.3125 -3.359375 C 3.101562 -3.492188 2.863281 -3.5625 2.59375 -3.5625 C 2.320312 -3.5625 2.078125 -3.492188 1.859375 -3.359375 C 1.648438 -3.234375 1.484375 -3.054688 1.359375 -2.828125 C 1.234375 -2.609375 1.171875 -2.351562 1.171875 -2.0625 Z M 1.171875 -2.0625 "/>
</g>
<g id="glyph-0-3">
</g>
<g id="glyph-0-4">
<path d="M 1.59375 -4.25 L 1.125 0 L 0.359375 0 L 1.125 -6.609375 L 3.640625 -2.046875 L 6.171875 -6.609375 L 6.9375 0 L 6.171875 0 L 5.703125 -4.25 L 3.640625 -0.578125 Z M 1.59375 -4.25 "/>
</g>
<g id="glyph-0-5">
<path d="M 0.3125 -2.0625 C 0.3125 -2.488281 0.40625 -2.863281 0.59375 -3.1875 C 0.78125 -3.507812 1.035156 -3.765625 1.359375 -3.953125 C 1.691406 -4.140625 2.054688 -4.234375 2.453125 -4.234375 C 2.859375 -4.234375 3.222656 -4.140625 3.546875 -3.953125 C 3.867188 -3.765625 4.125 -3.507812 4.3125 -3.1875 C 4.5 -2.863281 4.59375 -2.488281 4.59375 -2.0625 C 4.59375 -1.65625 4.5 -1.285156 4.3125 -0.953125 C 4.125 -0.628906 3.867188 -0.375 3.546875 -0.1875 C 3.222656 0 2.859375 0.09375 2.453125 0.09375 C 2.054688 0.09375 1.691406 0 1.359375 -0.1875 C 1.035156 -0.375 0.78125 -0.628906 0.59375 -0.953125 C 0.40625 -1.285156 0.3125 -1.65625 0.3125 -2.0625 Z M 1.046875 -2.0625 C 1.046875 -1.78125 1.101562 -1.523438 1.21875 -1.296875 C 1.34375 -1.078125 1.507812 -0.898438 1.71875 -0.765625 C 1.9375 -0.640625 2.179688 -0.578125 2.453125 -0.578125 C 2.722656 -0.578125 2.960938 -0.640625 3.171875 -0.765625 C 3.390625 -0.898438 3.5625 -1.078125 3.6875 -1.296875 C 3.8125 -1.523438 3.875 -1.78125 3.875 -2.0625 C 3.875 -2.351562 3.8125 -2.609375 3.6875 -2.828125 C 3.5625 -3.054688 3.390625 -3.234375 3.171875 -3.359375 C 2.960938 -3.492188 2.722656 -3.5625 2.453125 -3.5625 C 2.179688 -3.5625 1.9375 -3.492188 1.71875 -3.359375 C 1.507812 -3.234375 1.34375 -3.054688 1.21875 -2.828125 C 1.101562 -2.609375 1.046875 -2.351562 1.046875 -2.0625 Z M 1.046875 -2.0625 "/>
</g>
<g id="glyph-0-6">
<path d="M 0.3125 -2.0625 C 0.3125 -2.519531 0.40625 -2.90625 0.59375 -3.21875 C 0.78125 -3.539062 1.03125 -3.789062 1.34375 -3.96875 C 1.65625 -4.144531 1.992188 -4.234375 2.359375 -4.234375 C 2.671875 -4.234375 2.945312 -4.160156 3.1875 -4.015625 C 3.4375 -3.878906 3.632812 -3.679688 3.78125 -3.421875 L 3.78125 -7.015625 L 4.5 -7.015625 L 4.5 0 L 3.78125 0 L 3.78125 -0.71875 C 3.632812 -0.457031 3.4375 -0.253906 3.1875 -0.109375 C 2.945312 0.0234375 2.671875 0.09375 2.359375 0.09375 C 1.992188 0.09375 1.65625 0.00390625 1.34375 -0.171875 C 1.03125 -0.347656 0.78125 -0.597656 0.59375 -0.921875 C 0.40625 -1.242188 0.3125 -1.625 0.3125 -2.0625 Z M 1.046875 -2.0625 C 1.046875 -1.75 1.109375 -1.476562 1.234375 -1.25 C 1.367188 -1.03125 1.539062 -0.863281 1.75 -0.75 C 1.96875 -0.632812 2.203125 -0.578125 2.453125 -0.578125 C 2.660156 -0.578125 2.867188 -0.632812 3.078125 -0.75 C 3.285156 -0.863281 3.453125 -1.03125 3.578125 -1.25 C 3.710938 -1.476562 3.78125 -1.75 3.78125 -2.0625 C 3.78125 -2.382812 3.710938 -2.65625 3.578125 -2.875 C 3.453125 -3.101562 3.285156 -3.273438 3.078125 -3.390625 C 2.867188 -3.503906 2.660156 -3.5625 2.453125 -3.5625 C 2.203125 -3.5625 1.96875 -3.503906 1.75 -3.390625 C 1.539062 -3.273438 1.367188 -3.101562 1.234375 -2.875 C 1.109375 -2.65625 1.046875 -2.382812 1.046875 -2.0625 Z M 1.046875 -2.0625 "/>
</g>
<g id="glyph-0-7">
<path d="M 1.390625 -1.625 C 1.390625 -1.289062 1.460938 -1.03125 1.609375 -0.84375 C 1.765625 -0.664062 1.988281 -0.578125 2.28125 -0.578125 C 2.59375 -0.578125 2.84375 -0.671875 3.03125 -0.859375 C 3.226562 -1.054688 3.328125 -1.3125 3.328125 -1.625 L 3.328125 -4.140625 L 4.046875 -4.140625 L 4.046875 0 L 3.328125 0 L 3.328125 -0.640625 C 3.054688 -0.148438 2.644531 0.09375 2.09375 0.09375 C 1.664062 0.09375 1.320312 -0.0507812 1.0625 -0.34375 C 0.800781 -0.644531 0.671875 -1.039062 0.671875 -1.53125 L 0.671875 -4.140625 L 1.390625 -4.140625 Z M 1.390625 -1.625 "/>
</g>
<g id="glyph-0-8">
<path d="M 0.671875 -7.015625 L 1.390625 -7.015625 L 1.390625 0 L 0.671875 0 Z M 0.671875 -7.015625 "/>
</g>
<g id="glyph-0-9">
<path d="M 0.890625 -3.1875 L 0.546875 -3.71875 C 0.703125 -3.832031 0.914062 -3.945312 1.1875 -4.0625 C 1.457031 -4.175781 1.785156 -4.234375 2.171875 -4.234375 C 2.648438 -4.234375 3.035156 -4.125 3.328125 -3.90625 C 3.628906 -3.6875 3.78125 -3.375 3.78125 -2.96875 L 3.78125 0 L 3.0625 0 L 3.0625 -0.5625 C 2.9375 -0.34375 2.738281 -0.175781 2.46875 -0.0625 C 2.207031 0.0390625 1.953125 0.09375 1.703125 0.09375 C 1.453125 0.09375 1.21875 0.0390625 1 -0.0625 C 0.78125 -0.164062 0.601562 -0.316406 0.46875 -0.515625 C 0.332031 -0.710938 0.265625 -0.953125 0.265625 -1.234375 C 0.265625 -1.640625 0.40625 -1.960938 0.6875 -2.203125 C 0.976562 -2.453125 1.378906 -2.578125 1.890625 -2.578125 C 2.160156 -2.578125 2.394531 -2.546875 2.59375 -2.484375 C 2.789062 -2.421875 2.945312 -2.347656 3.0625 -2.265625 L 3.0625 -2.875 C 3.0625 -3.15625 2.96875 -3.34375 2.78125 -3.4375 C 2.601562 -3.539062 2.390625 -3.59375 2.140625 -3.59375 C 1.828125 -3.59375 1.5625 -3.539062 1.34375 -3.4375 C 1.132812 -3.34375 0.984375 -3.257812 0.890625 -3.1875 Z M 1 -1.28125 C 1 -1.039062 1.082031 -0.851562 1.25 -0.71875 C 1.414062 -0.59375 1.628906 -0.53125 1.890625 -0.53125 C 2.222656 -0.53125 2.5 -0.628906 2.71875 -0.828125 C 2.945312 -1.023438 3.0625 -1.289062 3.0625 -1.625 L 3.0625 -1.765625 C 2.894531 -1.859375 2.722656 -1.921875 2.546875 -1.953125 C 2.378906 -1.984375 2.195312 -2 2 -2 C 1.65625 -2 1.398438 -1.9375 1.234375 -1.8125 C 1.078125 -1.6875 1 -1.507812 1 -1.28125 Z M 1 -1.28125 "/>
</g>
<g id="glyph-0-10">
<path d="M 2.640625 -3.34375 C 2.546875 -3.414062 2.457031 -3.46875 2.375 -3.5 C 2.300781 -3.539062 2.207031 -3.5625 2.09375 -3.5625 C 1.820312 -3.5625 1.632812 -3.460938 1.53125 -3.265625 C 1.4375 -3.066406 1.390625 -2.816406 1.390625 -2.515625 L 1.390625 0 L 0.671875 0 L 0.671875 -4.140625 L 1.390625 -4.140625 L 1.390625 -3.65625 C 1.503906 -3.832031 1.640625 -3.972656 1.796875 -4.078125 C 1.953125 -4.179688 2.109375 -4.234375 2.265625 -4.234375 C 2.421875 -4.234375 2.5625 -4.210938 2.6875 -4.171875 C 2.8125 -4.128906 2.929688 -4.050781 3.046875 -3.9375 Z M 2.640625 -3.34375 "/>
</g>
<g id="glyph-0-11">
<path d="M 2.28125 0.09375 C 1.894531 0.09375 1.550781 0.00390625 1.25 -0.171875 C 0.957031 -0.359375 0.726562 -0.613281 0.5625 -0.9375 C 0.394531 -1.269531 0.3125 -1.644531 0.3125 -2.0625 C 0.3125 -2.5 0.394531 -2.878906 0.5625 -3.203125 C 0.738281 -3.523438 0.976562 -3.773438 1.28125 -3.953125 C 1.59375 -4.140625 1.953125 -4.234375 2.359375 -4.234375 C 2.972656 -4.234375 3.453125 -4.039062 3.796875 -3.65625 C 4.140625 -3.28125 4.3125 -2.765625 4.3125 -2.109375 C 4.3125 -2.066406 4.3125 -2.019531 4.3125 -1.96875 C 4.3125 -1.925781 4.3125 -1.898438 4.3125 -1.890625 L 1.046875 -1.890625 C 1.078125 -1.472656 1.207031 -1.148438 1.4375 -0.921875 C 1.664062 -0.691406 1.972656 -0.578125 2.359375 -0.578125 C 2.929688 -0.578125 3.363281 -0.828125 3.65625 -1.328125 L 4.25 -0.96875 C 3.8125 -0.257812 3.15625 0.09375 2.28125 0.09375 Z M 2.359375 -3.59375 C 2.015625 -3.59375 1.726562 -3.5 1.5 -3.3125 C 1.28125 -3.125 1.140625 -2.851562 1.078125 -2.5 L 3.53125 -2.5 C 3.507812 -2.832031 3.390625 -3.097656 3.171875 -3.296875 C 2.960938 -3.492188 2.691406 -3.59375 2.359375 -3.59375 Z M 2.359375 -3.59375 "/>
</g>
<g id="glyph-0-12">
<path d="M 5.046875 0 L 4.234375 -1.890625 L 1.703125 -1.890625 L 0.90625 0 L 0.046875 0 L 2.96875 -6.609375 L 5.890625 0 Z M 2.96875 -4.875 L 2 -2.609375 L 3.9375 -2.609375 Z M 2.96875 -4.875 "/>
</g>
<g id="glyph-0-13">
<path d="M 3.328125 -2.515625 C 3.328125 -3.210938 3.035156 -3.5625 2.453125 -3.5625 C 2.140625 -3.5625 1.882812 -3.460938 1.6875 -3.265625 C 1.488281 -3.078125 1.390625 -2.828125 1.390625 -2.515625 L 1.390625 0 L 0.671875 0 L 0.671875 -4.140625 L 1.390625 -4.140625 L 1.390625 -3.484375 C 1.660156 -3.984375 2.070312 -4.234375 2.625 -4.234375 C 3.0625 -4.234375 3.40625 -4.085938 3.65625 -3.796875 C 3.914062 -3.503906 4.046875 -3.109375 4.046875 -2.609375 L 4.046875 0 L 3.328125 0 Z M 3.328125 -2.515625 "/>
</g>
<g id="glyph-0-14">
<path d="M 3.953125 -4.140625 L 1.265625 1.984375 L 0.453125 1.984375 L 1.578125 -0.578125 L 0 -4.140625 L 0.859375 -4.140625 L 2.015625 -1.28125 L 3.15625 -4.140625 Z M 3.953125 -4.140625 "/>
</g>
<g id="glyph-0-15">
<path d="M 0.84375 -1.265625 C 0.96875 -1.078125 1.117188 -0.910156 1.296875 -0.765625 C 1.484375 -0.628906 1.707031 -0.5625 1.96875 -0.5625 C 2.175781 -0.5625 2.335938 -0.609375 2.453125 -0.703125 C 2.566406 -0.796875 2.625 -0.925781 2.625 -1.09375 C 2.625 -1.238281 2.578125 -1.359375 2.484375 -1.453125 C 2.390625 -1.554688 2.269531 -1.640625 2.125 -1.703125 C 1.988281 -1.773438 1.835938 -1.84375 1.671875 -1.90625 C 1.492188 -1.96875 1.3125 -2.046875 1.125 -2.140625 C 0.945312 -2.242188 0.796875 -2.375 0.671875 -2.53125 C 0.546875 -2.695312 0.484375 -2.898438 0.484375 -3.140625 C 0.484375 -3.390625 0.546875 -3.59375 0.671875 -3.75 C 0.804688 -3.914062 0.976562 -4.035156 1.1875 -4.109375 C 1.394531 -4.191406 1.609375 -4.234375 1.828125 -4.234375 C 2.160156 -4.234375 2.457031 -4.15625 2.71875 -4 C 2.988281 -3.84375 3.191406 -3.648438 3.328125 -3.421875 L 2.75 -3.046875 C 2.632812 -3.203125 2.488281 -3.332031 2.3125 -3.4375 C 2.144531 -3.539062 1.953125 -3.59375 1.734375 -3.59375 C 1.585938 -3.59375 1.457031 -3.554688 1.34375 -3.484375 C 1.238281 -3.421875 1.1875 -3.320312 1.1875 -3.1875 C 1.1875 -3.019531 1.273438 -2.882812 1.453125 -2.78125 C 1.628906 -2.675781 1.828125 -2.578125 2.046875 -2.484375 C 2.285156 -2.390625 2.503906 -2.285156 2.703125 -2.171875 C 2.898438 -2.054688 3.054688 -1.921875 3.171875 -1.765625 C 3.296875 -1.609375 3.359375 -1.410156 3.359375 -1.171875 C 3.359375 -0.804688 3.226562 -0.503906 2.96875 -0.265625 C 2.707031 -0.0234375 2.363281 0.09375 1.9375 0.09375 C 1.65625 0.09375 1.40625 0.046875 1.1875 -0.046875 C 0.96875 -0.148438 0.78125 -0.28125 0.625 -0.4375 C 0.46875 -0.59375 0.351562 -0.753906 0.28125 -0.921875 Z M 0.84375 -1.265625 "/>
</g>
</g>
<clipPath id="clip-0">
<path clip-rule="nonzero" d="M 168 76 L 595.277344 76 L 595.277344 81 L 168 81 Z M 168 76 "/>
</clipPath>
</defs>
<g clip-path="url(#clip-0)">
<path fill="none" stroke-width="3.543307" stroke-linecap="butt" stroke-linejoin="miter" stroke="rgb(96.862793%, 30.979919%, 33.332825%)" stroke-opacity="1" stroke-miterlimit="4" d="M -0.000615 0.00031875 L 439.370479 0.00031875 " transform="matrix(1, 0, 0, 1, 170.07874, 78.4489)"/>
</g>
<g fill="rgb(0%, 0%, 0%)" fill-opacity="1">
<use xlink:href="#glyph-0-0" x="170.07874" y="69.4489"/>
</g>
<g fill="rgb(0%, 0%, 0%)" fill-opacity="1">
<use xlink:href="#glyph-0-1" x="174.85774" y="69.4489"/>
<use xlink:href="#glyph-0-2" x="177.55774" y="69.4489"/>
<use xlink:href="#glyph-0-1" x="182.74174" y="69.4489"/>
<use xlink:href="#glyph-0-3" x="185.44174" y="69.4489"/>
<use xlink:href="#glyph-0-4" x="188.14174" y="69.4489"/>
<use xlink:href="#glyph-0-5" x="195.43174" y="69.4489"/>
<use xlink:href="#glyph-0-6" x="200.34574" y="69.4489"/>
<use xlink:href="#glyph-0-7" x="205.47574" y="69.4489"/>
<use xlink:href="#glyph-0-8" x="210.20074" y="69.4489"/>
<use xlink:href="#glyph-0-9" x="212.27074" y="69.4489"/>
<use xlink:href="#glyph-0-10" x="216.59974" y="69.4489"/>
</g>
<g fill="rgb(0%, 0%, 0%)" fill-opacity="1">
<use xlink:href="#glyph-0-11" x="219.55174" y="69.4489"/>
<use xlink:href="#glyph-0-3" x="224.18674" y="69.4489"/>
<use xlink:href="#glyph-0-12" x="226.88674" y="69.4489"/>
<use xlink:href="#glyph-0-13" x="232.82674" y="69.4489"/>
<use xlink:href="#glyph-0-9" x="237.55174" y="69.4489"/>
<use xlink:href="#glyph-0-8" x="241.88074" y="69.4489"/>
<use xlink:href="#glyph-0-14" x="243.95074" y="69.4489"/>
<use xlink:href="#glyph-0-15" x="247.91074" y="69.4489"/>
<use xlink:href="#glyph-0-11" x="251.53774" y="69.4489"/>
</g>
</svg>
